<?xml version="1.0" encoding="UTF-8"?><svg id="Layer_2" xmlns="http://www.w3.org/2000/svg" viewBox="0 0 101.55 155.59"><defs><style>.cls-1{fill:none;stroke:#000;stroke-miterlimit:10;}</style></defs><g id="Layer_1-2"><path class="cls-1" d="M101.48,.5c-5.55,.78-11.58-.37-16.31,3.84-.7,.62-1.48,.94-2.38,.67-2.53-.75-4.45,.54-6.19,1.99-4.1,3.41-8.91,6.02-11.96,10.64-.57,.86-1.27,1.73-2.12,2.28-3.55,2.29-5.57,5.78-7.96,9.1-1.83,2.55-3.06,5.47-5.1,7.82-4.15,4.79-6.89,10.52-9.13,16.2-2.49,6.3-5.07,12.52-7.85,18.69-2.63,5.83-4.25,12.13-7,17.9-1.78,3.74-2.06,8.12-4.9,11.37-4.38,4.54-5.51,10.27-5.99,16.25-.19,.51-.38,1.03-.56,1.54h0c-1.84,1.01-2.44,2.78-2.98,4.64-.72,2.49-1.35,5.03-2.38,7.4-3.45,7.94-4.38,16.7-8.23,24.54"/></g></svg>