<?xml version="1.0" encoding="UTF-8"?><svg id="Layer_2" xmlns="http://www.w3.org/2000/svg" viewBox="0 0 54.47 67.24"><defs><style>.cls-1{fill:none;stroke:#000;stroke-miterlimit:10;}</style></defs><g id="Layer_1-2"><path class="cls-1" d="M54.26,66.79c-1.26-.59-2.42-1.34-3.31-2.48-7.14-9.18-14.4-18.26-21.4-27.55-2.24-2.98-5.66-5-7.32-8.71,2.86-1.3,3.58,1.94,6.01,2.06-2.53-3.24-3.53-7.12-7.29-9.24-1.52-.85-2.43-2.9-3.46-4.5-1.38-2.15-3.24-3.02-5.73-2.59l.12,.12c-.19-4.04-3.57-5.84-6.11-7.96-1.33-1.11-2.86-1.74-3.32-3.59C2.16,1.16,1.17,.78,.14,.48"/></g></svg>