<?xml version="1.0" encoding="UTF-8"?><svg id="Layer_2" xmlns="http://www.w3.org/2000/svg" viewBox="0 0 23.35 11.75"><defs><style>.cls-1{fill:none;stroke:#000;stroke-miterlimit:10;}</style></defs><g id="Layer_1-2"><path class="cls-1" d="M6.08,11.26c-.62-.11-1.47-.57-1.65-1.07-.36-.96,.5-1.49,1.27-1.96,1.74-1.06,3.68-1.17,5.58-.98,3.91,.4,7.09-1.51,10.43-2.95,.91-.39,1.44-1.04,.94-1.99-.41-.77-1.22-.52-1.85-.26-5.57,2.29-11.35,1.37-17.08,1.17-.69-.02-1.4-.09-2.08-.22-.51-.1-1.02-.31-1.12-.93-.14-.81,.34-1.4,.98-1.62"/></g></svg>