<?xml version="1.0" encoding="UTF-8"?><svg id="Layer_2" xmlns="http://www.w3.org/2000/svg" viewBox="0 0 78.97 72.25"><defs><style>.cls-1{fill:none;stroke:#000;stroke-miterlimit:10;}</style></defs><g id="Layer_1-2"><path class="cls-1" d="M78.94,.86C68.8,.17,59.12-.11,50.39,5.6c-1.18,.02-2.31,.15-2.94,1.36-.72,.61-1.44,1.22-2.16,1.83-1.14,.2-1.8,.85-1.91,2.03-1.51,2.01-3.16,3.88-5.2,5.38-3.96,2.05-6.55,5.3-8.54,9.05l-3.83,5.41c-.72,.58-1.3,1.38-1.91,2.17-4.23,5.51-6.76,12.16-11.6,17.27-1.14,1.2-1.37,2.78-.95,4.42,.07,.25-.01,.42-.25,.52-3.74,1.65-4.5,2.79-4.2,6.28-2.43,3.41-4.83,6.84-6.46,10.74"/></g></svg>