<?xml version="1.0" encoding="UTF-8"?><svg id="Layer_2" xmlns="http://www.w3.org/2000/svg" viewBox="0 0 20.06 80.84"><defs><style>.cls-1{fill:none;stroke:#000;stroke-miterlimit:10;}</style></defs><g id="Layer_1-2"><path class="cls-1" d="M.5,0c.02,2.77,2.56,4.65,3.31,7.3,2.88,10.22,5.83,20.41,8.69,30.63,.38,1.34,.54,2.75,1.41,3.89,1.45,1.9,1.56,4.14,1.92,6.4,.95,5.91,.89,12.05,3.69,17.55-.06,.22-.14,.44-.23,.66-.08,1.02-.16,2.05-.24,3.07,.05,.1,.07,.2,.11,.31-.63,.49-.69,1.02-.07,1.58-.05,.11-.09,.21-.16,.32-.59,2.97-1.44,5.93-.53,8.98"/></g></svg>