<?xml version="1.0" encoding="UTF-8"?><svg id="Layer_2" xmlns="http://www.w3.org/2000/svg" viewBox="0 0 107.9 106.81"><defs><style>.cls-1{fill:none;stroke:#000;stroke-miterlimit:10;}</style></defs><g id="Layer_1-2"><path class="cls-1" d="M107.55,.35c-3.1,3.11-6.78,4.59-11.2,4.91-3.47,.25-6.76,1.67-9.97,3.07-13.25,5.78-24.66,14.25-34.45,24.73-7.52,8.04-14.64,16.5-20.81,25.68-1.75,.48-1.98,1.84-1.94,3.36-.08,.3-.24,.55-.49,.73-4.05,4.5-7.81,9.21-10.55,14.64-.78,1.55-1.51,3.09-2.56,4.51-2.99,4.05-6.29,7.97-8.63,12.38-2.17,4.1-5.65,7.56-6.45,12.37"/></g></svg>