<?xml version="1.0" encoding="UTF-8"?><svg id="Layer_2" xmlns="http://www.w3.org/2000/svg" viewBox="0 0 117.29 102.41"><defs><style>.cls-1{fill:none;stroke:#000;stroke-miterlimit:10;}</style></defs><g id="Layer_1-2"><path class="cls-1" d="M117.17,1.31c-5.25,1.32-10.41,2.08-15.61,.74-1.51-2.12-3.39-1.73-5.34-.78-4.9-.31-9.8-.35-14.69,.15-4.44-1.41-8.18,.11-11.64,2.79l-3.09,1.39c-1.87,.15-3.68,.41-4.29,2.63-.12,.33-.35,.55-.69,.67-.32,1.25-1.35,1.53-2.41,1.76l-.08,.11c-.91,.05-1.74,.39-2.34,1.04-4.9,5.32-11.45,9.29-13.7,16.78-.15,.49-.48,.93-.76,1.37-7.49,11.9-13.74,24.52-21.86,36.07-3.58,5.09-6.64,10.58-10.32,15.65-4.5,6.19-7.4,13.19-9.87,20.59"/></g></svg>