<?xml version="1.0" encoding="UTF-8"?><svg id="Layer_2" xmlns="http://www.w3.org/2000/svg" viewBox="0 0 163.32 22.97"><defs><style>.cls-1{fill:none;stroke:#000;stroke-miterlimit:10;}</style></defs><g id="Layer_1-2"><path class="cls-1" d="M.06,22.48c4.48-.58,8.44-2.48,12.55-3.87,6.57-2.22,13.2-4.06,20.07-5.24,6.14-1.05,11.95-3.54,18.1-4.8,13.77-2.84,27.43-6.41,41.48-7.57,14.96-1.24,29.8-.28,44.2,4.44,5.28,1.73,10.84,2.49,15.99,4.69,.9,.38,2.18,.52,3.05,.17,1.69-.68,2.61-.6,2.91,1.39,.14,.96,.86,1.45,1.81,1.62,1.86,.32,2.89,1.54,2.53,3.3"/></g></svg>