<?xml version="1.0" encoding="UTF-8"?><svg id="Layer_2" xmlns="http://www.w3.org/2000/svg" viewBox="0 0 74.57 52.79"><defs><style>.cls-1{fill:none;stroke:#000;stroke-miterlimit:10;}</style></defs><g id="Layer_1-2"><path class="cls-1" d="M.43,45.35c2.02-3.37,3.96-6.86,6.72-9.83,7.23-7.76,13.82-16.11,22.05-22.95,3.59-2.98,6.57-6.71,9.75-10.18,1.43-1.56,2.91-2.62,4.97-1.29,1.81,1.17,4.24-.39,5.88,1.44,.16,.18,.66,.27,.88,.16,.86-.41,.31-2.89,2.27-1.66,1.36,.85,2.18,2.25,2.84,3.69,.73,1.58,1.4,3.2,1.98,4.83,3.47,9.69,6.45,19.51,7.95,29.72,.66,4.5,3.62,7.83,5.55,11.68,.56,1.11,2,.47,2.91,1.5"/></g></svg>