<?xml version="1.0" encoding="UTF-8"?><svg id="Layer_2" xmlns="http://www.w3.org/2000/svg" viewBox="0 0 131.91 57.94"><defs><style>.cls-1{fill:none;stroke:#000;stroke-miterlimit:10;}</style></defs><g id="Layer_1-2"><path class="cls-1" d="M.24,35.41c5.11,2.78,9.53,6.42,12.91,11.23,1.1,1.57,2.15,3.19,3.36,4.67,5.51,6.72,14.49,7.89,21.99,3.66,9.81-5.53,17.09-13.45,23.7-22.36,5.17-6.99,10.6-13.93,16.83-19.94,4.93-4.76,11.04-8.42,17.47-11.2,.32-.14,.65-.27,.98-.37,8.12-2.29,22.2,2.32,26.82,9.31,5.42,8.2,8.8,16.98,6.23,27.2-.65,2.58-2.67,4.29-2.75,7.24"/></g></svg>