<?xml version="1.0" encoding="UTF-8"?><svg id="Layer_2" xmlns="http://www.w3.org/2000/svg" viewBox="0 0 149.35 124.62"><defs><style>.cls-1{fill:none;stroke:#000;stroke-miterlimit:10;}</style></defs><g id="Layer_1-2"><path class="cls-1" d="M.4,124.32c2.78-3.82,6.03-4.46,9.65-4.98,8.24-1.17,16.57-1.35,24.81-2.69,2.96-.48,6.48-.48,9.45,.04,4.82,.85,9.25,.48,13.82-.78,13.84-3.83,26.31-10.26,36.82-20.06,6.37-5.94,12.07-12.52,16.37-20.22,3.68-6.58,7.87-12.86,11.81-19.29,2.89-4.7,5.47-9.62,6.86-15.16,.85-3.38,1.85-6.81,3.3-10.09,2.15-4.83,2.52-10.11,2.72-15.33,.1-2.63,.34-5.24,.95-7.76,.67-2.79,2.52-4.76,5.04-6.34,2.3-1.44,4.38-1.56,7.15-.32"/></g></svg>