<?xml version="1.0" encoding="UTF-8"?><svg id="Layer_2" xmlns="http://www.w3.org/2000/svg" viewBox="0 0 141.64 87.77"><defs><style>.cls-1{fill:none;stroke:#000;stroke-miterlimit:10;}</style></defs><g id="Layer_1-2"><path class="cls-1" d="M.1,86.82c.67-.14,1.35-.28,2.02-.43,1.54,.76,3.15,1.08,4.85,.63,2.02,.31,4.05,.36,6.07,0,4.29,.34,7.03-2.47,9.89-4.95,4.51-3.92,7.57-9.03,10.9-13.87,1.63-2.37,4.18-4.18,4.74-7.25,.11-.39,.23-.78,.34-1.18,1.95-2.7,3.26-5.6,2.94-9.04,1.44-10.13,5.39-19.41,10.33-28.19,2.07-3.68,3.99-7.96,7.1-10.59,5.78-4.87,12.15-9.17,19.95-10.6,11.61-2.12,22.66-.16,32.99,5.07,6.5,3.29,12.51,7.56,17.49,13.04,2.61,5.03,7.66,7.81,11.55,12.01"/></g></svg>