<?xml version="1.0" encoding="UTF-8"?><svg id="Layer_2" xmlns="http://www.w3.org/2000/svg" viewBox="0 0 216.52 65.52"><defs><style>.cls-1{fill:none;stroke:#000;stroke-miterlimit:10;}</style></defs><g id="Layer_1-2"><path class="cls-1" d="M.46,65.32c1.27-2.94,1.19-6.18,2.53-8.99,1.32-2.76,2-6,5.25-7.51,1.39-.65,1.49-2.26,1.89-3.59,.71-2.34,1.62-4.54,2.87-6.69,5.3-9.11,13.71-15.1,21.67-21.41,4.02-3.18,9.25-4.77,14.23-6.39,12.48-4.07,25.32-6.35,38.29-8.16,9.7-1.35,19.39-2.37,29.18-2.02,19.95,.72,39.46,4.24,58.81,9.06,16,3.99,29.59,11.77,40.98,23.87"/></g></svg>