<?xml version="1.0" encoding="UTF-8"?><svg id="Layer_2" xmlns="http://www.w3.org/2000/svg" viewBox="0 0 53.48 124.91"><defs><style>.cls-1{fill:none;stroke:#000;stroke-miterlimit:10;}</style></defs><g id="Layer_1-2"><path class="cls-1" d="M1.51,124.62c-1.05-1.48-1.13-3.1-.91-4.82,.6-4.84,1.11-9.7,1.79-14.53,.36-2.57,1.06-5.03,2.29-7.4,1.03-1.97,1.48-4.25,2.1-6.42,3.23-11.34,7.11-22.41,12.61-32.91,2.17-4.13,3.54-8.69,5.21-13.08,1.74-4.57,3.71-8.99,6.39-13.14,1.95-3.02,4.08-6.02,4.93-9.7,.37-1.62,1.52-3.15,2.6-4.5,4.79-5.99,9.62-11.95,14.57-17.81"/></g></svg>