<?xml version="1.0" encoding="UTF-8"?><svg id="Layer_2" xmlns="http://www.w3.org/2000/svg" viewBox="0 0 90.48 52.97"><defs><style>.cls-1{fill:none;stroke:#000;stroke-miterlimit:10;}</style></defs><g id="Layer_1-2"><path class="cls-1" d="M90.25,.44c-3.39,1.76-7.24,2.21-10.95,2.98-4.23,.87-7.9,2.64-11.32,5.14-6.47,4.74-12.69,9.78-17.82,15.98-3.13,3.77-4.84,8.41-7.12,12.69-2.7,5.07-5.42,10.19-10.92,12.9-4.11,2.03-8.26,4.36-11.97-.75-.68-.94-1.98-.53-2.9-.94-2.05-.9-4.3-1.74-4.91-4.23-.63-2.56-3.01-3.73-4.36-5.74-3.12-4.63-5.63-9.51-7.5-14.88"/></g></svg>