<?xml version="1.0" encoding="UTF-8"?><svg id="Layer_2" xmlns="http://www.w3.org/2000/svg" viewBox="0 0 207.32 132.23"><defs><style>.cls-1{fill:none;stroke:#000;stroke-miterlimit:10;}</style></defs><g id="Layer_1-2"><path class="cls-1" d="M2.74,131.83c-2.09-1.6-2.29-3.82-2.23-6.12,.15-6.24,.27-12.48,.47-18.72,.08-2.48,1.9-4.42,2.19-6.93,.17-1.53,1-3.17,.44-4.6-1.44-3.68-.61-7.25,.32-10.73,1.28-4.75,1.14-9.64,1.83-14.45,2.08-14.62,6.77-28.04,16.46-39.36,8.54-9.97,19.18-17.08,31.4-21.78,4.06-1.56,8.2-2.9,12.29-4.4C77.98,.31,90.57,.21,103.13,.69c12.2,.47,24.39,1.34,36.56,2.34,23.28,1.92,44.15,9.76,61.46,25.92,1.62,1.52,3.57,2.47,6.03,3.2"/></g></svg>