<?xml version="1.0" encoding="UTF-8"?><svg id="Layer_2" xmlns="http://www.w3.org/2000/svg" viewBox="0 0 305.74 337.51"><defs><style>.cls-1{fill:#020202;}.cls-2{fill:#3b3b3b;}</style></defs><g id="Layer_1-2"><g><path d="M166.32,52.36c-.1,2.27,.93,4.17,2.12,5.97,4.04,6.13,5.21,12.97,5.08,20.13-.03,1.54,.15,3.14-1,4.49-1.73,2.01-3.92,2.18-5.64,.2-3.54-4.06-6.32-8.57-7.92-13.76-1.29-4.17-2.42-8.38-3.12-12.69-.21-1.3-.69-1.18-1.69-.87-7.81,2.45-15.63,4.86-23.46,7.23-2.08,.63-4.24,.65-6.41,.5-.86-.06-1.19-.44-1.46-1.19-.62-1.68-.57-3.32,.23-4.88,5.68-11.12,10.84-22.51,17.56-33.08C149.44,10.47,162,2.49,178.35,.4c7.04-.9,13.96-.27,20.7,1.81,7.28,2.25,13.29,6.54,18.31,12.26,2.12,2.41,3.88,5.05,5.33,7.92,.75,1.48,.39,2.95-1.04,3.76-11.6,6.65-23.79,12.02-36.37,16.54-4.37,1.57-8.35,3.97-12.6,5.81-1.74,.75-3.46,1.57-5.24,2.38,7.85,4.89,16.11,8.67,24.46,12.29,4.26,1.85,8.67,3.2,13.11,4.5,4.21,1.23,8.01,3.37,11.77,5.54,7.3,4.21,15.08,7.03,23.38,8.49,1.14,.2,2.24,.57,3.37,.84,.56,.13,.77,.42,.61,.98-.19,.68-.7,.32-1,.23-6.15-1.78-12.6-2.49-18.5-5.21-3.54-1.63-7.01-3.38-10.36-5.34-4.5-2.63-9.3-4.36-14.29-5.72-4.65-1.27-8.98-3.39-13.4-5.28-6.9-2.95-13.43-6.6-20.02-10.15-.13,0-.26-.02-.39-.03l.12,.35Zm-39.24,8.84c.61-.1,1.85-.17,3.01-.52,8.05-2.45,16.09-4.97,24.14-7.43,.88-.27,1.01-.64,.9-1.49-.28-2.13-.43-4.28-.59-6.43-.03-.38-.33-.98,.41-1.12,.83-.15,.79,.49,.83,.98,.18,1.97,.38,3.94,.47,5.91,.05,1.17,.51,1.38,1.52,.98,5.55-2.2,11.14-4.32,16.49-6.99,3.48-1.74,6.96-3.47,10.61-4.81,12-4.38,23.67-9.5,34.82-15.75,.97-.54,1-.95,.52-1.84-1.48-2.71-3.28-5.19-5.37-7.45-6.26-6.75-13.9-10.85-23.05-12.22-10.38-1.55-20.26,.02-29.67,4.58-10.13,4.91-16.9,13.16-22.38,22.71-4.92,8.57-9.02,17.56-13.53,26.34-.42,.82-.89,1.63-1.2,2.49-.62,1.74-.35,2.07,2.06,2.05Zm37.81-9.32c-2.37,.91-4.62,1.84-6.92,2.61-1.03,.34-1.17,.88-.99,1.8,1.78,9.16,3.87,18.19,10.34,25.45,.72,.8,1.27,1.93,2.66,1.49,1.44-.46,2.13-1.57,2.32-2.99,.12-.92,.08-1.86,.06-2.79-.12-6.17-1.05-12.18-4.33-17.51-1.54-2.5-2.91-4.97-3.14-8.07Z"/><path d="M57.53,136.35c-.61,17.47-2.29,34.57-5.12,51.77,2.55-1.09,5.12-2.15,7.66-3.28,6.19-2.75,12.05-6.17,18.1-9.22,2.6-1.31,5.36-2.23,8.28-2.51,.72-.07,1.01-.77,1.65-.89,.8-.16,1.72-1.08,2.33,.42-1.67,.19-3.25,.5-2.94,2.99-.69-1.81-1.76-1.51-3.06-1.22-4.67,1.04-8.71,3.47-12.8,5.74-4.97,2.76-10.08,5.26-15.37,7.31-3.11,1.21-4.84,2.76-5.56,6.29-1.39,6.83-3.88,13.4-6.2,19.98-.13,.37-.21,1.21-.73,1-1.77-.71-1.63,.82-1.88,1.6-1.44,4.4-2.69,8.85-5.73,12.52-1.3,1.58-2.96,2.22-4.72,1.29-7.31-3.87-15.23-5.74-23.27-7.21-1.77-.32-3.59-.34-5.39-.47-.5-.04-1.19-.14-1.27,.56-.07,.59,.61,.66,1.01,.73,2.17,.36,4.24,.98,6.3,1.77,1.69,.65,3.63,.61,5.45,.96,3.7,.72,7.09,2.41,10.73,3.38,5.68,1.51,11.25,3.44,16.76,5.52,.91,.35,1.76,.87,2.62,1.35,.34,.19,1.03,.18,.72,.89-.32,.71-.81,.64-1.43,.31-2.32-1.21-4.71-2.19-7.23-2.96-5.56-1.69-11.11-3.45-16.64-5.23-3.39-1.09-6.8-1.78-10.24-2.54-2.78-.61-5.46-1.79-8.3-2.31-.91-.17-1.23-.81-1.27-1.63-.05-.87,.19-1.58,1.12-1.94,.57-.22,1.12-.31,1.71-.27,8.85,.6,17.37,2.61,25.53,6.09,1.27,.54,2.55,1.07,3.78,1.73,1.05,.57,2.03,.23,2.88-.81,2.64-3.29,3.87-7.2,5.15-11.11,2.76-8.43,5.77-16.79,8.11-25.36,.06-.21,.08-.42,.14-.78-2.64,.94-5.15,1.77-7.61,2.74-6.66,2.64-13.73,3.47-20.69,4.75-6.13,1.12-12.3,1.88-18.49,2.51-.5,.05-1.36,.55-1.46-.22-.13-1,.93-.61,1.43-.67,10.29-1.11,20.51-2.76,30.64-4.84,5.47-1.12,10.65-3.27,15.87-5.25,.73-.28,.9-.78,1.07-1.43,1.3-4.9,1.93-9.91,2.32-14.94,.55-7.01,1.59-13.96,2.29-20.96,.4-3.99,.77-7.99,1-12,.09-1.66,.34-3.27,2.75-4.15Zm-3.78,28.52l.47,.05c.17-2.06,.34-4.11,.51-6.17-.5,2.02-.98,4.05-.98,6.12Zm-.92,12.43l.43-3.74c-.77,1.05-.74,2.16-.43,3.74Zm-3.3,15.84l-.07-.32c-.09,.12-.23,.24-.26,.38-.03,.11,.08,.24,.13,.37l.21-.43Zm-.42,1.64c-.04-.09-.06-.25-.11-.26-.19-.04-.26,.09-.21,.26,.03,.09,.1,.17,.16,.26,.05-.09,.11-.17,.16-.26Zm-.37,1.41l-.14-.27c-.05,.09-.13,.17-.14,.26,0,.09,.08,.18,.12,.27,.05-.09,.1-.17,.15-.26Zm-.32,1.14l-.11-.28c-.08,.09-.19,.17-.22,.27-.02,.06,.09,.16,.15,.25l.18-.24Z"/><path class="cls-2" d="M136.64,311.94c1.03,.29,2.08,.53,3.08,.88,.65,.23,1.49,.23,1.53,1.34,.04,1.05-.44,1.68-1.24,2.11-9.15,4.83-18.63,8.89-28.57,11.79-10.16,2.97-20.3,6.05-30.73,7.96-8.93,1.63-17.95,1.9-26.98,.95-4.48-.48-5.32-2.39-2.57-5.9,5.33-6.8,9.64-14.23,13.85-21.73,6.31-11.23,13.57-21.84,20.83-32.45,.99-1.45,2.53-1.77,4.35-.95,3.44,1.55,6.84,3.18,10.28,4.72,5.29,2.36,10.77,4.22,16.32,5.85,2.28,.67,4.21,1.93,6.16,3.18,3.62,2.33,7.46,4.22,11.53,5.64,.52,.18,1.37,.21,1.02,1.23-.4,1.19-1.02,.37-1.56,.2-3.78-1.19-7.44-2.79-10.64-5.06-3.84-2.73-8.15-4.12-12.52-5.46-5.84-1.79-11.36-4.31-16.87-6.89-1.42-.67-2.86-1.27-4.27-1.96-1.22-.6-2.08-.29-2.82,.8-7.17,10.46-14.28,20.96-20.51,32.02-4.25,7.55-8.55,15.07-13.95,21.89-.29,.36-.5,.79-.78,1.15-.79,1.01-.41,1.51,.7,1.81,2.44,.66,4.95,.66,7.43,.78,11.52,.54,22.74-1.29,33.81-4.37,8.84-2.46,17.73-4.77,26.37-7.91,6.06-2.2,11.98-4.73,17.6-7.9,.64-.36,1.33-.65,2.24-1.08-2.16-.93-4.28-1.18-6.33-1.63-8.28-1.81-16.28-4.47-24.11-7.7-2.57-1.06-5.11-2.24-7.92-2.58-1.01-.12-1.84-.69-2.67-1.23-.81-.52-1.53-1.18-1.25-2.27,.29-1.12,.87-2,2.11-2.3,2.58-.64,4.75,.67,7.01,1.46,4.96,1.75,9.47,4.39,13.96,7.07,3.4,2.03,7.29,2.61,11.05,3.47,3.79,.86,7.65,1.39,11.47,2.11,1.08,.2,1.59-.09,1.3-1.21-.19-.74,.07-1.15,.77-1.23,.81-.1,.72,.62,.82,1.08,.45,2.22-.46,3.21-2.58,2.91-2.22-.31-4.46-.58-6.68-.87l-.07,.31Zm-15.26-3.92l.1-.26c-1.44-.85-2.89-1.68-4.32-2.56-4.61-2.84-9.53-5.02-14.68-6.64-1.04-.33-2.82-1.09-3.24,.7-.28,1.21,1.37,1.7,2.28,1.83,4.33,.61,8.08,2.74,12.09,4.21,2.58,.94,5.18,1.82,7.77,2.73Zm10.2,2.95c1.42,.27,2.83,.55,4.25,.82-1.33-.75-2.75-1.07-4.25-.82Z"/><path class="cls-1" d="M282.08,189.76c6.71,2.18,13.49,3.86,20.64,3.23,.75-.07,1.51,.01,2.27,.04,.33,.01,.77-.03,.74,.48-.02,.38-.38,.38-.67,.36-5.2-.34-10.48,.45-15.59-1.13-7.85-2.42-15.91-3.94-23.93-5.64-4.01-.85-7.87-2.33-12-2.63-3.13-.23-6.11-.31-8.14,2.89-.95,1.49-2.47,2.62-3.72,3.92-2.06,2.13-4.44,1.51-6.81,.76-2.09-.67-3.8-1.95-5.35-3.47-.91-.89-1.83-1.81-2.87-2.54-1.57-1.09-2.77-.59-3.13,1.31-.68,3.52-.45,7.06-.15,10.6,.14,1.68,.52,3.33,.79,4.99,.97,5.93,1.26,11.89,.42,17.85-.35,2.49,.2,4.91,.81,7.24,.37,1.44,2.26,1.61,3.59,2.05,1.75,.58,3.56,.42,5.34,.04l.34,.32c-3.13,1.02-6.07,.31-8.92-1.14-.31,.78-.09,1.47,.06,2.11,1.34,5.63,1.24,11.38,1.48,17.1,.03,.63-.08,1.27-.13,1.91-.15,2.19-1.32,3.34-3.51,3.32-.91,0-1.8-.17-1.55-1.5,.08-.44,.06-.95-.06-1.38-2.46-8.72-2.99-17.74-4.14-26.67-.11-.87-.17-1.74-.81-2.43,.59-.43,.64-.91,.14-1.44-1.84-11.92-2.05-23.99-2.97-35.99-.59-7.65-1.35-15.3-1.56-22.98-.03-1.14-.19-2.8,1.19-2.84,1.02-.03,.73,1.71,.77,2.61,.18,4.07,.34,8.14,.73,12.19,1.07,11.17,1.6,22.38,2.45,33.57,.38,4.93,.73,9.84,1.49,14.71,.16,1.01,.22,2.03,.83,2.98,.33,.51-.17,1.34-.06,2.09,.97,6.61,2.03,13.22,2.7,19.88,.1,.96,.29,1.92,1.16,2.77,.87-1.54,.77-3.16,.7-4.62-.25-5.64-1.1-11.23-1.96-16.8-.53-3.41-.7-6.76-.2-10.14,.37-2.47,.04-4.86-.32-7.27-1.08-7.39-1.59-14.81-1.5-22.27,.02-1.6,.47-3.06,1.3-4.45,1.36-2.29,3.01-2.68,5.13-1.01,2.32,1.84,4.59,3.75,6.9,5.62,.77,.62,1.56,1.22,2.38,1.76,1.4,.92,2.75,.83,3.93-.4,1.21-1.26,2.51-2.47,3.51-3.88,2.79-3.96,6.59-4.93,11.05-3.9,8.1,1.88,16.25,3.57,24.31,5.66,7.09,1.84,14.33,3.36,21.76,3.27,.36,0,1-.24,1.03,.31,.03,.75-.68,.41-1.07,.43-6.28,.38-12.3-1.36-18.42-2.33-.58-.12-1.17-.23-1.75-.35-.45-.11-.91-.22-1.36-.33l-1.37-.37c-.73-.1-1.44-.75-2.28,.08,.63,.15,1.26,.29,1.9,.44,.46,.1,.92,.19,1.38,.29,.45,.11,.9,.23,1.35,.34l1.74,.36Zm-38.49-2.44c.3,.34,.49,.15,.65-.14,.48-.25,.85-.59,1.14-1.43-.76,.42-1.18,.7-1.27,1.3-.16,.09-.33,.18-.48,.28l.06,.39,.14-.09-.24-.31Zm-2.23,2.93l.41-.24,.38-.37,.07-.32-.19,.05c.05,.1,.09,.19,.13,.29-.14-.02-.24-.22-.43-.03-.19,.19,.02,.28,.04,.41-.25-.45-.39-.16-.54,.08l-.37,.37c-1.06,.63-2.1,1.3-3.42,1.17-2.07-.92-3.75-2.41-5.46-3.84-1.92-1.6-3.85-3.2-5.84-4.7-1.35-1.02-2.51-.73-3.33,.72-.79,1.38-1.26,2.86-1.29,4.46-.14,6.82,.27,13.62,1.23,20.37,.53,3.76,1.01,7.49,.33,11.28-.36,1.98,.02,3.94,.22,5.9,.06,.56-.05,1.34,.93,1.52,.03-2-.86-3.83-.55-5.85,.9-5.84,.62-11.7-.23-17.52-.44-2.99-1.11-5.95-1.12-8.98,0-2.72-.32-5.48,.47-8.14,.71-2.37,2.39-2.93,4.4-1.48,1.03,.74,1.92,1.69,2.85,2.56,2.11,1.97,4.36,3.65,7.43,3.67,1.48,.71,2.58,.13,3.53-1.02,.23,0,.35-.12,.35-.35Zm5.4-6.21c-.25,.2-.9,.26-.44,.75,.27,.28,.55-.12,.72-.39l.71-.36c3.11-.91,6.26-.64,9.3,.1,5.55,1.36,11.1,2.68,16.69,3.86,.56,.12,1.3,.51,1.97-.34-.68-.23-1.2-.45-1.74-.57-4.28-.97-8.56-1.9-12.84-2.88-2.92-.67-5.79-1.56-8.8-1.73-1.8-.1-3.6-.07-5.08,1.21l-.5,.34Zm-28.53,36.64c-.01,.5-.13,1.02,.25,1.63,.01-.66,.45-1.23-.26-1.62,.14-1.37,.01-2.69-.61-3.94-.13,1.36,.07,2.67,.62,3.93Zm2.85,22c.18,2.56,.44,5.1,1.63,7.44,.22,.66,.52,1.31,.25,2.02-.13,.36-.22,.61,.31,.75,1.29,.33,2.99-.85,3.03-2.2,.22-7.15-.18-14.25-1.67-21.27-.13-.6-.1-1.32-1.05-1.5,.38,3.01,.74,5.99,1.12,8.97,.49,3.8,1.11,7.59,.54,11.44-.22,1.53-.67,1.87-2.1,1.37-1.35-2.17-1.08-4.7-1.55-7.07-.32-1.62-.32-3.32-1.02-5.32-.24,2.14,.43,3.73,.5,5.38Zm-5.7-55.98c-.03-2.91,.14-5.82-.33-8.71-.64-1.88,.16-3.98-.93-5.8,.44,1.9-.07,3.86,.49,5.75,.17,2.9,.35,5.81,.52,8.71-.15,1.04-.13,2.05,.56,3.32,.11-1.34,.32-2.34-.31-3.27Zm.51,5.33h-.3c.37,5.36,.73,10.73,1.1,16.11l.4-.03c-.4-5.36-.8-10.72-1.2-16.08Zm3.88,37.53l-.46,.03,.88,6.94,.42-.05-.83-6.92Zm-5.91-68.64c-.3,2.28-.24,4.25,0,6.22,.24-1.97,.14-3.94,0-6.22Zm3.69,54.69c-.05-.18-.01-.4-.25-.31-.07,.02-.13,.19-.11,.28,.02,.14,.11,.28,.17,.42l.19-.39Zm28.4-30.24c.18-.35-.11-.3-.19-.4-.1,.11-.25,.21-.29,.34-.03,.09,.06,.32,.13,.34,.27,.06,.3-.2,.35-.27Z"/><path d="M55.06,106.2c-2.45-.16-4.88,.13-7.32,.32-8.08,.62-16.17,.73-24.27,.89-1.45,.03-2.9,.18-4.36,.23-1.14,.04-1.58-.59-1.42-1.67,.77-5.19,.97-10.42,1.27-15.64,.32-5.52,1.15-10.95,2.97-16.17,1.44-4.12,2.35-8.41,4.12-12.41,1.78-4.02,3.48-8.09,5.21-12.13,.04-.09,.14-.15,.3-.32,.51,.76-.07,1.31-.3,1.86-2.52,6.02-5.22,11.98-7.3,18.18-.8,2.37-.74,2.43,1.63,3.05,6.46,1.68,13.1,2.4,19.64,3.63,6.66,1.24,13.32,2.45,19.99,3.63,9.3,1.63,18.63,3.1,27.91,4.86,5.67,1.07,11.27,2.52,16.89,3.87,1.26,.3,2.52,.72,3.86,1.69-3.27,.09-6.1-.74-8.94-1.37-8.95-1.98-18.01-3.36-27.04-4.88-10.09-1.69-20.14-3.66-30.16-5.77-6.4-1.34-12.91-2.11-19.26-3.72-1.29-.33-2.6-.58-3.85-1.03-1.32-.48-1.73,.01-2.17,1.23-2.14,5.98-2.72,12.2-3.05,18.45-.23,4.19-.5,8.36-1.02,12.52-.11,.85-.23,1.56,1.1,1.51,8.9-.35,17.82-.42,26.71-1.04,6.21-.43,12.45-.24,18.63-1.17,12.84-1.93,25.88-1.76,38.74-3.5,.23-.03,.47-.05,.7-.05,.51,0,1.22-.15,1.27,.56,.06,.83-.74,.49-1.17,.56-10.43,1.51-20.91,2.39-31.44,2.85-3.87,.17-7.69,1.25-11.58,1.5-1.8,.12-3.65-.02-5.39,.36-9.65,2.11-19.45,1.39-29.2,1.73-2.21,.08-4.42,.19-6.63,.18-1.48-.01-2.78,.15-3.49,1.74-.12-1.33,.56-2.05,1.73-2.21,1.32-.17,2.67-.2,4.01-.22,9.67-.12,19.34-.27,28.99-.84,1.31-.08,2.37-.98,3.69-.92,2.79,.18,5.54-.36,8.31-.56-2.79-.84-5.53,.45-8.31,.23Zm47.29-18.93c.27,.55,.67,.29,1.4,.14l-1.43-.11c-4.64-1.6-9.48-2.31-14.28-3.14-10.1-1.76-20.25-3.27-30.31-5.26-2.1-.42-4.22-.76-6.33-1.14,7.32,2.01,14.78,3.32,22.23,4.63,6.95,1.22,13.92,2.34,20.89,3.49,2.62,.43,5.15,1.32,7.83,1.39Zm-18.42,16.26v.64c3.75-.36,7.49-.72,11.22-1.08l-.03-.4c-3.73,.28-7.46,.56-11.19,.84Zm-3.48,.41c-2.21,.3-4.45-.05-6.65,.37,2.23,.11,4.46,.41,6.65-.37Zm-43.13-28.52c-1.05-.46-2.19-.75-3.68-.68,1.32,.68,2.48,.63,3.68,.68Zm-4.56-.91c-.11-.04-.21-.1-.3-.1-.07,0-.13,.09-.19,.13,.05,.02,.11,.06,.16,.05,.11-.01,.21-.05,.34-.09Zm63.73,28.35c-.1-.04-.19-.09-.29-.11-.03,0-.07,.08-.11,.12,.09,.04,.19,.08,.29,.1,.03,0,.08-.07,.11-.12Z"/><path d="M167.09,194.93c3.09-3.63,7.02-5.8,11.56-7.21,3.92-1.21,7.26-.99,10.89,1.19,4.57,2.73,9.18,5.45,14.02,7.73,.35,.16,.75,.43,.91,.76,1.41,2.98,3.12,5.85,3.28,9.27l.03-.02c-.46-.2-.67-.51-.77-1.03-.45-2.6-1.75-4.89-2.76-7.29-.27-.64-.73-1-1.31-1.31-5.46-2.93-10.93-5.85-16.35-8.85-1.25-.69-2.51-.95-3.85-.68-5.55,1.08-10.71,2.99-14.73,7.22-.19,.2-.46,.31-.7,.46-.12-.03-.19-.11-.22-.22Z"/><path d="M167.31,195.15c-1.78,2.15-2.67,4.72-3.1,7.41-.32,1.98-.95,3.79-1.84,5.56-1.15,2.27-2.22,4.58-3.27,6.89-.81,1.79-2.09,3.28-3.55,4.47-2.69,2.2-3.89,5.06-4.52,8.32-.18,.93-.52,1.83-.98,2.67,1.02-3.53,.88-7.47,4.05-10.23,2.13-1.86,4.02-3.92,5.07-6.7,.94-2.48,2.28-4.81,3.46-7.19,1.3-2.61,1.02-5.67,2.34-8.29,.58-1.15,1.03-2.33,2.1-3.12,.03,.12,.11,.19,.22,.22Z"/><path d="M217.22,220.33c.5,.53,.45,1.01-.14,1.44-2.48-1.9-4.14-4.52-5.93-6.99-1.28-1.77-2.22-3.79-3.25-5.72-.4-.75-.8-1.57-.12-2.41l-.03,.02c1.81,5.15,4.95,9.45,8.49,13.51,.13,.15,.49,1.3,.98,.15Z"/><path d="M234.66,230.44l-.34-.32c1.21-.64,2.42-1.29,3.63-1.93-.74,1.32-1.89,1.98-3.29,2.25Z"/></g></g></svg>